# xmcd
#
# Track frame offsets: 
#        150
#        14553
#        40174
#        62059
#        84933
#        106234
#        133922
#        174440
#        215003
#        241052
#        276483
#
# Disc length: 3969 seconds
#
# Revision: 0
# Processed by: cddbd v1.5.2PL0 Copyright (c) Steve Scherf et al.
# Submitted via: ExactAudioCopy v0.99pb5
#
DISCID=990f7f0b
DTITLE=Eric Clapton  - God Hand Bless You - Disc 5 (05-19-01) Tampa,Fl
DTITLE=orida
DYEAR=1900
DGENRE=
TTITLE0=Key To The Highway
TTITLE1=Reptile
TTITLE2=Got You On My Mind
TTITLE3=Tears In Heaven
TTITLE4=Bell Bottom Blues
TTITLE5=Change The World
TTITLE6=My Father's Eyes
TTITLE7=River Of Tears
TTITLE8=Going Down Slow
TTITLE9=She's Gone
TTITLE10=I Want A Little Girl
EXTD=
EXTT0=
EXTT1=
EXTT2=
EXTT3=
EXTT4=
EXTT5=
EXTT6=
EXTT7=
EXTT8=
EXTT9=
EXTT10=
PLAYORDER=
